<svg width="1440" height="138" viewBox="0 0 1440 138" fill="none" xmlns="http://www.w3.org/2000/svg">
<path d="M938 128C938 192.617 886.065 245 822 245C757.935 245 706 192.617 706 128C706 63.3827 757.935 11 822 11C886.065 11 938 63.3827 938 128Z" fill="#FFBF00"/>
<path d="M-215 145C355.407 118.661 375.612 19.389 548.133 19.389C720.654 19.389 735.419 104.701 874.524 104.701C1013.63 104.701 998.475 0 1177.99 0C1324.09 0 1456.59 125.641 1548.68 125.641C1640.77 125.641 1557.61 131.845 1626 142.703C1346.24 142.703 -215 145 -215 145Z" fill="#192480"/>
<path d="M1637 145C1576.69 112.209 1520.33 129.683 1403.81 117.952C1287.29 106.222 1238.31 58 1075.14 58C911.969 58 868.085 112.209 656.005 112.209C443.925 112.209 283.842 58 160.482 58C37.1218 58 -4.35721 92.4414 -89.7922 112.209C-175.227 131.977 -266.394 100.611 -327 145C-227.493 145 1637 145 1637 145Z" fill="#0688FA"/>
</svg>
