<svg width="1440" height="505" viewBox="0 0 1440 505" fill="none" xmlns="http://www.w3.org/2000/svg">
<mask id="mask0" mask-type="alpha" maskUnits="userSpaceOnUse" x="-55" y="-313" width="1532" height="818">
<path d="M1477 253L-55 505V-313H1477V253Z" fill="#F0F8FF"/>
</mask>
<g mask="url(#mask0)">
<path d="M1477 253L-55 505V-313H1477V253Z" fill="#FFF5F5"/>
<path d="M439.677 420L439.883 420.528L440 421.055L439.941 421.583L439.619 422.111L439.971 422.639L439.795 423.166L439.531 423.694L439.853 424.222L439.707 424.75L439.736 425.277L439.619 425.805V426.333L439.296 426.831L439.414 427.388L439.326 427.887L439.531 428.444L439.355 428.942L439.208 429.47L439.384 430.027L439.296 430.525L439.648 431.082L439.091 431.581L439.238 432.109L439.12 432.636L438.945 433.135L439.15 433.692L439.296 434.249L438.945 434.747L439.12 435.275L439.208 435.832L439.003 436.33L438.798 436.829L438.651 437.356L438.622 437.884L438.534 438.412L438.681 438.94L438.329 439.438L438.651 440.024L438.505 440.523L438.3 441.021L438.358 441.578L438.475 442.106L437.889 442.575L437.918 443.103L437.684 443.601L437.713 444.129L437.977 444.715L437.86 445.243V445.771L437.801 446.299L437.537 446.768L437.567 447.325L437.449 447.852L437.479 448.38L437.01 448.82L436.746 449.318L437.097 449.934L436.98 450.432L436.57 450.902L436.423 451.4L436.452 451.928L436.599 452.514L435.983 452.925L436.071 453.482L436.101 454.009L436.159 454.566L436.013 455.094L435.954 455.622L435.397 456.032L435.221 456.531L435.309 457.088L435.28 457.616L435.221 458.143L434.84 458.612L434.605 459.081L434.547 459.609L434.488 460.137L434.342 460.665L434.488 461.251L434.4 461.779L434.019 462.219V462.746L433.872 463.274L433.579 463.714L433.257 464.183L433.11 464.681L432.846 465.15L433.052 465.766V466.323L432.407 466.675L432.377 467.203V467.76L432.407 468.346L432.084 468.786L431.82 469.255L431.674 469.753L431.468 470.252L431.087 470.692L431.292 471.307L430.911 471.747L431.087 472.333L430.647 472.744L430.706 473.33L430.178 473.711L430.237 474.298L429.914 474.737L429.651 475.207L429.739 475.793L429.24 476.174L429.152 476.702L428.8 477.142L428.566 477.611L428.742 478.256L428.126 478.549L428.185 479.165L427.892 479.604L427.51 480.015L427.774 480.689L427.246 481.041L427.012 481.51L426.895 482.038L426.748 482.536L426.396 482.976L426.074 483.416L426.191 484.031L425.839 484.471L425.781 484.999L425.487 485.439V486.025L424.784 486.289L424.872 486.934L424.696 487.432L424.549 487.931L424.256 488.37L423.728 488.693L423.846 489.338L423.67 489.836L423.435 490.335L423.201 490.804L422.497 491.038L422.526 491.654L422.057 492.006L422.086 492.592L421.823 493.061L421.324 493.384V494L421.09 494.469L420.533 494.762L420.591 495.378L420.327 495.847L420.063 496.316L419.653 496.668L419.506 497.195L419.331 497.694L418.715 497.958L418.627 498.515V499.13L418.187 499.482L417.894 499.922L417.571 500.332L417.19 500.743L417.161 501.329L417.014 501.857L416.663 502.267L416.223 502.619L416.164 503.206L415.724 503.528L415.138 503.792L415.255 504.496L414.991 504.965L414.669 505.375L414.141 505.668L413.731 506.02V506.665L413.203 506.929L412.968 507.398L412.939 508.043L412.382 508.278L412.411 508.952L411.913 509.245L411.561 509.626L411.503 510.242L410.74 510.359L410.447 510.799L410.242 511.297L409.949 511.737L409.773 512.265L409.245 512.529L409.304 513.203L408.923 513.584L408.278 513.76L408.307 514.435L407.662 514.64L407.486 515.138L407.163 515.578L406.782 515.93L406.753 516.575L406.108 516.751L405.873 517.22L405.404 517.513L405.111 517.953L405.082 518.627L404.378 518.744L404.232 519.272L403.762 519.595V520.269L403.293 520.562L402.766 520.826L402.736 521.5L402.121 521.647L401.827 522.087L401.476 522.468L401.153 522.878L401.007 523.465L400.391 523.641L400.303 524.256L399.717 524.432L399.365 524.843L399.159 525.37L398.866 525.81L398.309 526.015L398.016 526.455L397.488 526.69L397.224 527.159L396.902 527.569L396.492 527.921L396.169 528.331L395.934 528.83L395.26 528.947L394.908 529.328V530.061L394.439 530.325L393.824 530.472L393.589 530.999L393.384 531.527L392.827 531.703L392.358 531.967L391.947 532.319L391.918 533.052L391.566 533.433L391.126 533.755L390.628 533.99L390.247 534.342L390.041 534.899L389.396 534.957L389.221 535.573H388.517L388.194 536.013L388.077 536.658L387.491 536.775L387.315 537.391L386.787 537.596L386.523 538.095L386.025 538.329L385.585 538.593L385.116 538.886L384.618 539.091L384.236 539.472L384.031 540.059L383.533 540.264L383.181 540.675L382.858 541.114L382.272 541.232L381.92 541.642L381.656 542.17L381.129 542.346L380.542 542.463L380.425 543.167L379.663 543.02L379.545 543.753L378.842 543.694L378.607 544.251L378.197 544.574L377.816 544.955L377.376 545.248L377.024 545.688L376.643 546.04L376.115 546.186L375.617 546.392L375.324 546.89L374.825 547.095L374.21 547.183L374.004 547.799H373.359L372.978 548.18L372.656 548.62L372.245 548.972L371.893 549.353L371.16 549.235L370.926 549.851L370.603 550.291L369.929 550.232L369.489 550.555L369.137 550.907L368.698 551.2L368.229 551.493L367.789 551.757L367.29 551.962L366.88 552.314L366.323 552.431L366.118 553.076L365.649 553.34L365.033 553.311L364.681 553.721L364.124 553.838L363.948 554.601L363.303 554.513L362.863 554.806L362.482 555.187L362.101 555.598L361.397 555.48L361.192 556.125L360.489 556.008L360.137 556.418L359.697 556.741L359.199 556.888L358.759 557.21L358.202 557.269L357.762 557.562L357.41 558.002L356.941 558.266L356.472 558.5L356.091 558.911L355.416 558.735L354.977 559.028L354.596 559.497L354.068 559.585L353.775 560.201L353.1 560.054L352.748 560.464L352.25 560.699H351.664L351.37 561.285H350.784L350.256 561.373L349.817 561.666L349.465 562.194L348.878 562.165L348.497 562.634L348.028 562.869L347.471 562.898L347.002 563.132H346.416L346.064 563.602L345.565 563.807L344.95 563.689L344.598 564.246L344.07 564.364L343.601 564.569L343.161 564.862L342.604 564.892L342.047 564.95L341.725 565.595L341.197 565.712L340.787 566.035L340.142 565.859L339.672 566.123L339.115 566.152L338.705 566.504L338.207 566.68L337.796 567.12L337.298 567.266L336.829 567.53L336.33 567.735H335.773L335.304 567.999L334.688 567.765L334.219 568.087L333.721 568.263L333.222 568.439L332.812 568.82L332.196 568.703L331.757 569.025L331.287 569.231L330.73 569.289L330.232 569.436L329.734 569.553L329.206 569.7L328.795 570.11H328.238L327.652 570.052L327.241 570.521L326.655 570.345L326.186 570.609L325.658 570.638L325.219 571.048L324.661 570.99L324.251 571.547L323.753 571.664L323.166 571.547L322.638 571.576L322.14 571.781L321.642 571.987L321.114 572.016L320.674 572.397L320.146 572.514L319.589 572.426L319.003 572.309L318.534 572.544L318.035 572.69L317.566 573.071L316.98 572.925L316.511 573.159L316.042 573.482L315.485 573.394L314.957 573.423L314.371 573.306L313.872 573.452L313.462 574.097L312.875 573.804H312.348L311.82 573.951L311.292 573.892L310.852 574.479L310.325 574.537L309.797 574.567L309.211 574.273L308.712 574.479L308.214 574.625L307.657 574.596L307.158 574.743L306.689 575.153L306.132 575.065L305.575 574.86L305.077 575.065L304.608 575.534L304.051 575.3L303.494 575.241L302.966 575.3L302.467 575.446L301.969 575.681L301.412 575.446L300.884 575.475L300.356 575.505L299.887 576.062L299.33 575.915L298.773 575.651L298.275 575.886L297.776 576.296L297.249 576.414L296.692 576.091L296.193 576.384L295.666 576.414H295.138L294.61 576.296L294.112 576.648L293.555 576.296L293.027 576.59L292.499 576.384L291.971 576.414L291.444 576.355L290.916 576.707L290.418 576.795L289.861 576.619H289.333L288.805 576.824L288.307 576.941L287.75 576.531H287.222L286.694 576.619L286.166 576.765L285.639 576.414L285.111 576.648L284.583 576.59L284.055 577L283.528 576.502H283L282.472 576.56L281.945 576.59L281.417 576.912L280.889 576.502L280.361 576.795L279.834 576.941L279.306 577L278.778 576.883L278.25 576.707L277.723 576.736L277.224 576.326L276.697 576.355L276.139 576.765L275.641 576.443L275.113 576.472L274.586 576.56H274.029L273.501 576.736L273.002 576.355L272.445 576.648L271.947 576.267L271.39 576.59L270.892 576.091L270.364 576.179L269.836 576.15L269.338 575.945L268.781 576.179L268.253 576.238L267.725 575.974L267.168 576.267L266.67 576.062L266.171 575.651L265.644 575.857L265.116 575.651L264.588 575.71L264.06 575.769L263.562 575.329L263.005 575.622L262.477 575.651L262.008 575.153L261.451 575.182L260.953 575.124L260.454 574.83H259.926L259.399 574.772L258.871 574.713L258.343 574.684L257.816 574.655L257.288 574.596L256.76 574.567L256.291 574.185L255.734 574.244L255.235 574.039L254.649 574.42L254.121 574.361L253.652 574.01L253.125 573.951L252.655 573.628L252.04 573.892L251.629 573.335L251.131 573.189L250.545 573.306L249.987 573.452L249.518 573.101L248.991 573.042L248.522 572.749L247.965 572.807L247.378 572.954L246.997 572.25L246.381 572.661L245.971 572.133L245.443 572.045L244.857 572.221L244.388 571.899L243.889 571.723L243.303 571.899L242.922 571.254L242.277 571.635L241.778 571.459L241.339 571.078L240.723 571.254L240.342 570.697H239.785L239.316 570.433L238.729 570.55L238.26 570.315L237.762 570.139L237.205 570.11L236.706 569.934L236.208 569.846L235.739 569.495L235.27 569.319L234.713 569.231L234.273 568.937L233.686 569.025L233.188 568.791L232.748 568.468L232.25 568.322L231.722 568.234L231.165 568.204L230.843 567.53L230.315 567.472L229.816 567.266L229.377 567.002L228.849 566.885L228.321 566.768L227.823 566.651L227.295 566.504L226.797 566.387L226.386 565.947L225.858 565.8L225.243 565.976L224.803 565.654L224.275 565.566L223.806 565.331L223.366 565.009L222.956 564.598L222.428 564.481L221.871 564.452L221.343 564.364L220.845 564.159L220.347 563.953L219.936 563.631L219.555 563.191L219.086 562.956L218.47 563.015L217.942 562.898L217.532 562.517L216.975 562.487L216.594 562.018L216.242 561.549L215.626 561.608L215.187 561.344L214.805 560.875L214.131 561.051L213.633 560.875L213.193 560.611L212.929 559.966L212.313 559.995L211.932 559.556L211.404 559.468L210.965 559.145L210.437 559.028L210.056 558.647L209.411 558.735L209.088 558.178L208.707 557.767L208.062 557.884L207.828 557.239L207.212 557.21L206.772 556.946L206.156 556.976L205.775 556.565L205.248 556.448L204.954 555.891L204.368 555.832L204.046 555.304L203.664 554.953L202.961 555.099L202.814 554.337L202.228 554.249L201.7 554.102L201.407 553.604L200.879 553.457L200.527 553.018L200.058 552.754L199.413 552.783L198.915 552.578L198.71 551.933L198.328 551.552L197.596 551.728L197.273 551.258L196.951 550.76L196.569 550.408H195.924L195.631 549.91L195.162 549.675L194.781 549.294L194.048 549.441L193.725 548.972L193.491 548.415L192.817 548.444L192.67 547.711L191.908 547.858L191.82 547.125L191.175 547.066L190.94 546.538L190.383 546.392L189.826 546.274L189.328 546.01L189.123 545.424L188.683 545.16L188.39 544.662H187.715L187.451 544.163L186.953 543.929L186.777 543.313L186.279 543.108L185.839 542.785L185.311 542.61L184.989 542.17L184.402 542.052L184.285 541.349L183.552 541.407L183.083 541.144L182.672 540.821L182.467 540.235L182.174 539.766H181.5L181.441 539.003L180.708 539.062L180.649 538.329H179.946L179.741 537.772L179.125 537.684L178.685 537.362L178.509 536.775L177.952 536.599L177.835 535.925L177.278 535.778L176.75 535.544L176.516 535.045L176.193 534.606L175.959 534.107L175.46 533.873L174.903 533.667L174.669 533.14L174.317 532.759L173.818 532.524L173.496 532.114L173.232 531.615L172.558 531.556L172.44 530.941L172.206 530.413L171.766 530.091L171.297 529.827L170.681 529.709L170.593 529.064L170.241 528.654L169.684 528.449L169.626 527.774L168.981 527.657L168.658 527.247L168.248 526.924L167.867 526.543L167.691 525.986L167.339 525.605L166.694 525.458L166.577 524.872L166.049 524.637L165.961 524.022L165.433 523.758L165.257 523.23L164.73 522.996L164.319 522.644L164.202 522.057L163.879 521.618L163.645 521.119L162.912 521.061L162.531 520.679L162.267 520.21L162.15 519.624L161.827 519.213L161.387 518.891L161.211 518.363L160.918 517.923L160.478 517.601L159.98 517.308L159.775 516.809L159.452 516.399L159.071 516.018L158.807 515.578L158.397 515.226L158.162 514.728L157.635 514.464L157.576 513.848L156.96 513.672L156.902 513.027L156.696 512.529L156.432 512.089L155.934 511.796L155.758 511.268L155.494 510.799L155.26 510.33L154.967 509.89L154.497 509.597L154.38 509.011L153.882 508.717L153.354 508.424L153.442 507.75L152.738 507.603L152.475 507.134L152.123 506.724L152.035 506.167L151.654 505.756L151.448 505.287L151.038 504.906V504.29L150.833 503.792L150.481 503.382L150.188 502.971L150.041 502.414L149.396 502.209L149.015 501.828L148.78 501.359L148.575 500.86L148.253 500.42L147.901 500.039L148.077 499.306L147.637 498.954L147.461 498.427L147.021 498.104L146.552 497.752L146.435 497.225L146.112 496.785L146.171 496.169L145.702 495.817L145.262 495.436L145.467 494.733L144.822 494.498L144.5 494.058L144.295 493.589V492.973L144.148 492.446L143.679 492.094L143.796 491.449L143.415 491.068L142.975 490.687L142.624 490.276L142.711 489.631L142.154 489.338L142.125 488.752L141.832 488.312L141.421 487.931V487.344L140.952 486.963L141.04 486.348L140.864 485.849L140.513 485.439L140.425 484.882L139.809 484.588L139.868 484.002L139.662 483.504L139.399 483.035L139.486 482.448L139.047 482.067L138.959 481.51L138.402 481.188L138.695 480.484L137.933 480.22L138.284 479.516L137.551 479.252V478.666L137.405 478.168L136.994 477.757L136.906 477.23L136.994 476.614L136.818 476.145L136.349 475.734L135.998 475.324L136.261 474.65L136.173 474.122L135.851 473.682V473.125L135.646 472.627L135.206 472.245L134.883 471.776L134.561 471.337L134.825 470.692L134.649 470.193L134.356 469.753L134.238 469.226L133.711 468.844L134.092 468.17L133.975 467.642L133.74 467.173L133.066 466.821V466.294L132.861 465.795L132.978 465.209L132.773 464.711L132.685 464.183L132.743 463.626L132.362 463.186L132.157 462.688L131.981 462.189L131.805 461.691L131.717 461.192L131.893 460.577L131.424 460.166L131.6 459.58L131.336 459.111L131.16 458.612L130.662 458.173L130.984 457.557L130.779 457.058L130.544 456.589L130.662 456.003L130.339 455.563L130.486 454.977L130.398 454.449L129.723 454.068L130.163 453.423L130.017 452.925L129.46 452.514L129.342 451.986L129.606 451.4L129.225 450.931L129.078 450.432L129.196 449.875L128.815 449.406L129.02 448.82L128.756 448.351L128.932 447.765L128.815 447.266L128.609 446.768V446.211L128.404 445.712L128.521 445.185L128.345 444.657L128.404 444.129L127.788 443.689L128.082 443.103L127.73 442.634L127.583 442.106L127.847 441.549L127.583 441.051L127.876 440.464L127.466 439.995L127.349 439.467L127.261 438.969L127.29 438.441L127.378 437.884L127.055 437.386L126.938 436.887L127.173 436.33L127.026 435.803L126.85 435.304L127.055 434.747L127.085 434.219L126.968 433.692L126.528 433.193V432.666L126.792 432.109L126.586 431.61L126.41 431.082L126.674 430.555L126.469 430.027L126.586 429.499L126.557 428.971L126.674 428.444L126.528 427.916L126.352 427.388L126.469 426.861L126.088 426.333L126.557 425.805L126.586 425.277L126.498 424.75L126.176 424.222L126.117 423.694L126 423.166L126.469 422.639L126.528 422.111L126.176 421.583L126.147 421.055L126 420.528L126.059 420L126.381 419.472L126.088 418.945L126.498 418.417L126.44 417.889L126.381 417.361L126.264 416.834L126.586 416.306L126.176 415.778L126.528 415.25L126.616 414.723L126.528 414.195L126.147 413.667L126.352 413.139L126.381 412.612V412.084L126.352 411.556L126.586 411.058L126.557 410.501L126.586 409.973L126.792 409.475L126.381 408.918L126.674 408.419L126.704 407.892L126.616 407.334L126.997 406.836L126.616 406.279L127.173 405.81L126.821 405.253L126.792 404.696L126.968 404.197L127.231 403.699L126.938 403.142V402.614L127.261 402.116L127.349 401.588L127.407 401.06L127.7 400.562L127.671 400.034L127.349 399.448L127.847 398.979L127.818 398.451L127.613 397.894L128.052 397.425L127.759 396.838L128.345 396.399L128.404 395.871L128.023 395.285L128.14 394.757L128.17 394.229L128.258 393.731L128.375 393.203L128.404 392.675L128.551 392.148L128.99 391.708L128.697 391.121L129.225 390.682L129.401 390.183L128.932 389.538L129.078 389.04L129.401 388.571L129.694 388.072L129.723 387.545L129.694 387.017L130.134 386.548L130.105 386.02L130.368 385.551L130.105 384.935L130.544 384.495L130.691 383.997L130.75 383.469L130.691 382.912L130.896 382.414L130.838 381.857L131.248 381.417L131.453 380.919L131.131 380.303L131.629 379.892L131.864 379.394L131.717 378.808L131.952 378.339L132.157 377.84L132.391 377.342L132.421 376.814L132.479 376.286L132.802 375.846L132.831 375.289L132.861 374.732L133.036 374.263L132.948 373.677L133.506 373.296L133.476 372.739L133.975 372.328L133.887 371.771L134.18 371.302L134.326 370.774L134.209 370.188L134.532 369.748L134.913 369.309L134.678 368.693L135.265 368.341L135.206 367.755L135.177 367.168L135.47 366.728L135.792 366.289L135.763 365.702L135.822 365.175L136.379 364.793L136.584 364.324L136.877 363.885L136.613 363.21L137.229 362.888L137.463 362.419L137.493 361.862L137.669 361.363L137.933 360.894L138.284 360.454L137.991 359.78L138.695 359.487L138.372 358.783L138.724 358.373L138.959 357.904L139.428 357.522L139.545 356.995L139.721 356.496L139.838 355.969L140.278 355.587V355.001L140.689 354.62L140.718 354.063L140.776 353.506L141.392 353.213L141.275 352.568L141.451 352.069L141.803 351.63L141.92 351.131L142.301 350.721L142.624 350.281L142.975 349.87L142.858 349.225L143.444 348.932L143.738 348.492V347.906L143.826 347.349L144.383 347.056V346.44L145.028 346.206L145.145 345.649L145.233 345.121L145.555 344.681L145.966 344.3L145.849 343.626L146.288 343.274L146.318 342.687L146.757 342.336L146.992 341.866L147.314 341.427L147.637 341.016L147.872 340.547L148.077 340.049L148.546 339.726L148.487 339.081L148.722 338.583L149.162 338.231L149.572 337.879L149.777 337.381L150.217 337.029L150.305 336.472L150.627 336.061L150.891 335.592L151.185 335.153L151.302 334.596L151.83 334.302L152.181 333.892L152.504 333.511L152.562 332.924L152.826 332.455L153.413 332.221V331.546L154.058 331.37L154.175 330.813L154.263 330.227L154.673 329.875L155.23 329.611L155.553 329.201V328.556L155.846 328.116L156.374 327.852V327.178L157.077 327.061L157.429 326.65L157.693 326.181L157.869 325.683L158.192 325.243L158.573 324.891L159.042 324.598V323.924L159.628 323.718L159.687 323.073L159.863 322.546L160.303 322.223L160.566 321.754L160.889 321.344L161.387 321.05L161.505 320.493L162.325 320.464L162.384 319.848L162.941 319.614L163.293 319.203L163.586 318.793L163.674 318.148L163.997 317.767L164.378 317.386L164.847 317.092L165.345 316.829L165.609 316.359L165.785 315.802L166.108 315.392L166.665 315.187L167.046 314.806L167.192 314.219L167.632 313.897L167.896 313.457L168.16 312.988L168.6 312.636L169.039 312.343L169.538 312.079L169.772 311.581L170.329 311.405V310.642L170.974 310.554L171.092 309.909L171.766 309.88L172.118 309.47L172.323 308.942L172.616 308.473L173.32 308.414L173.584 307.945L173.848 307.447L174.141 307.007L174.639 306.743L174.962 306.333L175.343 305.981L175.695 305.57L176.281 305.453L176.633 305.013L177.014 304.661L177.307 304.192L177.688 303.841L177.952 303.371L178.597 303.283L178.744 302.668L179.213 302.404L179.565 301.993L180.21 301.935L180.649 301.642L181.001 301.231L181.294 300.762L181.588 300.293L181.969 299.941L182.379 299.619L182.79 299.238L183.405 299.179L183.875 298.915L184.021 298.27L184.49 298.035L184.959 297.742L185.399 297.449L185.839 297.185L186.103 296.628L186.425 296.188L186.806 295.866L187.598 296.013L187.92 295.573L188.302 295.192L188.653 294.752L189.123 294.547L189.65 294.371L189.797 293.638L190.471 293.696L190.794 293.257L191.38 293.169L191.761 292.758L191.996 292.201L192.553 292.084L192.817 291.527H193.462L193.638 290.852L194.4 291.028L194.693 290.53L195.016 290.061L195.543 289.914L196.012 289.65L196.247 289.064L196.863 289.005H197.478L197.742 288.448L198.094 288.009L198.592 287.833L199.003 287.481L199.384 287.1H200L200.498 286.894L200.791 286.367L201.172 285.956L201.641 285.722H202.257L202.697 285.458L203.166 285.194L203.459 284.637L204.075 284.696L204.632 284.608L204.779 283.787L205.482 283.933L205.717 283.288L206.215 283.112L206.655 282.819L207.095 282.497L207.71 282.555L208.15 282.262L208.59 281.94L208.971 281.559L209.675 281.705L209.939 281.089L210.466 281.001L210.994 280.855L211.551 280.767L212.02 280.562L212.255 279.829L212.724 279.624L213.252 279.477L213.867 279.506L214.131 278.891L214.63 278.685L215.304 278.891L215.568 278.187L216.095 278.07H216.652L217.122 277.776L217.649 277.689L217.972 277.131L218.617 277.278L218.939 276.662L219.467 276.604L219.878 276.164L220.522 276.34L220.874 275.841L221.519 276.017L221.813 275.343L222.516 275.666L222.956 275.372L223.396 275.079L223.865 274.815L224.48 274.874L224.803 274.288L225.448 274.493L225.917 274.229L226.357 273.936L226.767 273.525L227.412 273.701L227.852 273.437L228.233 272.968L228.761 272.822L229.23 272.587L229.699 272.294L230.315 272.47L230.696 271.971L231.341 272.235L231.663 271.532L232.25 271.649L232.69 271.297L233.217 271.209L233.833 271.356L234.302 271.18L234.683 270.564L235.27 270.681L235.768 270.535L236.296 270.418L236.794 270.242L237.322 270.183L237.85 270.124L238.289 269.743L238.876 269.89L239.345 269.655L239.843 269.45L240.342 269.245L240.752 268.717L241.28 268.658L241.749 268.453L242.306 268.424L242.922 268.658L243.449 268.6L243.919 268.424L244.388 268.131L244.827 267.72L245.443 267.925L245.971 267.896L246.44 267.603L246.88 267.163L247.437 267.193L247.994 267.251H248.522L249.049 267.193L249.518 266.841L250.046 266.753L250.515 266.548L251.043 266.43L251.541 266.196L252.069 266.225L252.626 266.254L253.095 265.873L253.594 265.785L254.18 265.99L254.708 265.961H255.235L255.763 265.873L256.203 265.375L256.789 265.668L257.258 265.228L257.845 265.521L258.343 265.287L258.871 265.316L259.399 265.258L259.897 264.935L260.425 264.994L260.894 264.525L261.48 264.964L261.979 264.759L262.477 264.554L263.034 264.583L263.533 264.407L264.031 264.143L264.617 264.642L265.116 264.29L265.644 264.349L266.142 263.997L266.699 264.143L267.197 263.938L267.754 264.173L268.253 263.792L268.781 263.704L269.308 263.85L269.836 263.674L270.334 263.498L270.892 263.704L271.39 263.498H271.918L272.475 263.762L273.002 263.85H273.53L274.058 263.733H274.586L275.113 263.498L275.612 263.44L276.169 263.616L276.667 263.117L277.195 263.205L277.723 263.352L278.25 263.205L278.778 263.323L279.306 263.117L279.834 263H280.361L280.889 263.147L281.417 263.117L281.945 263.44L282.472 263.029L283 263.088L283.528 263.293L284.055 263.528L284.583 263.264L285.111 263.029L285.639 263.293L286.166 263.176L286.694 263.088L287.222 263.117L287.75 263.616L288.277 263.586L288.805 263.674L289.333 263.352L289.861 263.557H290.388L290.945 263.176L291.444 263.616L291.971 263.293L292.499 263.733L293.027 263.44L293.555 263.674H294.082L294.581 263.968L295.109 263.938L295.666 263.645L296.193 263.498L296.692 263.909L297.219 264.173L297.776 263.733H298.304L298.803 264.114L299.33 264.026L299.829 264.319L300.386 264.173L300.884 264.525L301.441 264.29L301.969 264.143L302.467 264.613L302.966 264.759L303.523 264.554L303.992 264.935L304.608 264.495L305.106 264.642L305.663 264.583L306.132 264.906H306.66L307.188 265.052L307.657 265.404L308.214 265.345L308.8 265.082L309.24 265.492L309.738 265.756L310.354 265.345L310.852 265.609H311.38L311.849 265.903L312.318 266.254L312.846 266.372L313.403 266.225L313.99 266.02L314.488 266.225L315.016 266.284L315.426 266.899L316.042 266.548H316.57L317.009 267.017H317.537L318.006 267.368L318.505 267.544L319.15 267.163L319.648 267.28L320.117 267.603L320.616 267.808L321.173 267.75L321.7 267.867L322.14 268.189L322.697 268.16L323.225 268.277L323.665 268.688L324.134 268.922L324.691 268.864L325.277 268.805L325.746 269.04L326.274 269.128L326.684 269.567L327.3 269.421L327.828 269.45L328.209 270.066L328.707 270.183L329.294 270.124L329.763 270.33L330.261 270.506L330.848 270.418L331.229 271.004L331.727 271.121L332.196 271.414L332.724 271.502L333.252 271.59L333.838 271.473L334.19 272.089L334.806 271.913L335.275 272.177L335.744 272.411L336.184 272.792L336.711 272.88L337.18 273.086L337.825 272.91L338.207 273.32L338.676 273.584L339.145 273.818L339.643 273.994L340.317 273.76L340.787 273.965L341.08 274.669L341.578 274.845L342.223 274.639L342.751 274.757L343.103 275.314L343.689 275.284L344.012 275.871L344.715 275.578L345.155 275.841L345.565 276.281L346.035 276.486L346.474 276.78L347.031 276.838L347.413 277.307H347.97L348.439 277.571L348.908 277.806L349.465 277.864L349.993 277.982L350.344 278.48L350.725 278.92L351.341 278.803L351.81 279.096L352.338 279.213L352.631 279.799L353.335 279.594L353.687 280.063L354.068 280.474L354.654 280.444L355.153 280.65L355.592 280.972L355.973 281.383L356.618 281.236L356.882 281.881L357.322 282.174L357.791 282.438L358.466 282.292L358.729 282.937L359.199 283.142L359.638 283.464L360.195 283.523L360.664 283.757L361.104 284.051L361.661 284.168L362.101 284.432L362.541 284.754L362.951 285.106L363.332 285.487L363.714 285.868L364.329 285.839L364.622 286.396L365.062 286.689L365.737 286.572L366.206 286.836L366.645 287.129L367.056 287.481L367.32 288.067L367.965 288.038L368.258 288.536L368.61 288.947L369.049 289.269L369.665 289.299L370.193 289.416L370.486 289.944L370.955 290.178L371.336 290.559L371.659 290.999L372.099 291.322L372.656 291.439L373.213 291.585L373.535 291.996L373.887 292.436L374.297 292.758L374.972 292.729L375.177 293.345L375.5 293.784L376.262 293.667L376.408 294.371L376.76 294.723L377.171 295.074L377.962 294.898L378.226 295.397L378.549 295.866L378.93 296.247L379.37 296.511L379.897 296.745L380.278 297.068L380.542 297.596H381.246L381.568 298.006L381.979 298.329L382.419 298.622L382.8 299.003L383.122 299.443L383.709 299.56L384.031 300L384.383 300.41L384.618 300.909L385.116 301.173L385.614 301.407L386.142 301.612L386.435 302.052L386.904 302.316L387.344 302.609L387.432 303.313L388.077 303.371L388.253 303.987L388.722 304.251L388.927 304.808L389.572 304.867L389.807 305.424L390.364 305.57L390.774 305.922L391.244 306.186L391.537 306.655L391.976 306.948L391.947 307.711L392.68 307.74L392.768 308.414L393.179 308.737L393.442 309.206L393.882 309.528L394.498 309.646L394.703 310.203L395.143 310.496L395.7 310.701L395.671 311.463L396.169 311.698L396.433 312.167L397.137 312.255L397.459 312.665L397.606 313.222L398.045 313.545L398.339 313.985L398.896 314.219L398.925 314.894L399.365 315.216L399.805 315.539L400.42 315.685L400.508 316.301L400.948 316.623L401.241 317.063L401.329 317.679L401.74 318.001L402.15 318.353L402.736 318.558L403.059 318.969L403.235 319.526L403.733 319.79L403.762 320.464L404.495 320.523L404.642 321.109L404.906 321.578L405.316 321.901L405.844 322.165L406.167 322.575L406.049 323.337L406.724 323.484L406.782 324.1L407.046 324.569L407.427 324.92L407.691 325.39L407.984 325.829L408.6 326.035L408.805 326.533L408.923 327.119L409.216 327.53L409.89 327.706L410.213 328.116L410.183 328.79L410.74 329.054L411.121 329.406L411.092 330.08L411.766 330.256V330.901L412.001 331.37L412.587 331.605L412.851 332.074L413.086 332.543L413.32 333.012L413.584 333.481L414.083 333.775L414.229 334.302L414.757 334.596L414.728 335.241L415.226 335.563L415.49 336.032L415.724 336.472L416.164 336.824L416.399 337.322L416.663 337.762L416.604 338.436L417.102 338.759L417.278 339.257L417.806 339.55L418.07 340.019L418.041 340.635L418.216 341.134L418.949 341.339V341.954L419.477 342.248L419.741 342.687L419.653 343.362L419.858 343.831L420.503 344.095L420.738 344.564V345.179L421.119 345.561L421.471 345.971L421.441 346.587L421.999 346.88L421.969 347.496L422.38 347.877L422.262 348.522L422.819 348.844L422.907 349.372L423.289 349.782L423.64 350.193L423.934 350.633L424.08 351.16L424.227 351.659L424.491 352.128V352.714L424.901 353.095V353.682L425.165 354.151L425.575 354.532L425.869 354.972L426.015 355.5L425.898 356.115L426.22 356.555L426.279 357.112L426.865 357.435L427.041 357.933L427.129 358.461L427.422 358.9L427.364 359.487L427.598 359.985L428.067 360.366L428.155 360.865L428.419 361.334L428.771 361.774L428.595 362.419L429.269 362.712L429.094 363.357L429.475 363.767L429.827 364.207L429.68 364.823L429.739 365.351L430.354 365.702L430.589 366.171L430.266 366.846L430.56 367.286L430.794 367.755L430.735 368.341L431.029 368.81L431.234 369.279L431.468 369.778L431.967 370.159L431.791 370.774L431.879 371.302L432.084 371.771L432.612 372.182L432.436 372.768L432.495 373.296L432.553 373.853L433.169 374.205L433.345 374.703L433.257 375.289L433.579 375.729L433.843 376.228L433.433 376.873L434.048 377.254L434.254 377.752L433.872 378.397L434.078 378.896L434.371 379.335L434.811 379.775L434.43 380.42L434.899 380.86L434.693 381.446L434.869 381.945L435.338 382.355L435.485 382.883L435.69 383.352L435.749 383.909L435.632 384.466L435.954 384.935L435.807 385.492L436.013 385.991L435.895 386.577L436.042 387.075L436.13 387.603L436.423 388.072L436.628 388.571L436.922 389.04L437.039 389.568L436.628 390.183L437.01 390.623L437.068 391.151L436.98 391.708L437.068 392.235L437.215 392.734L437.42 393.232L437.713 393.731L437.625 394.288V394.816L438.065 395.285L437.889 395.842V396.369L437.918 396.897L438.417 397.366L438.094 397.923L438.358 398.422L438.036 399.008L438.534 399.477L438.475 400.005L438.593 400.533L438.505 401.06L438.563 401.588L438.71 402.116L439.062 402.614L438.681 403.171L438.769 403.699L438.798 404.227L439.179 404.725L439.326 405.224L438.857 405.81L439.062 406.308L439.355 406.807L439.15 407.364L439.062 407.892L439.267 408.419L439.502 408.918L439.414 409.445L439.736 409.973L439.619 410.501L439.502 411.029L439.707 411.556L439.238 412.113L439.384 412.612L439.56 413.139L439.384 413.667L439.765 414.195L439.677 414.723L439.765 415.25L439.824 415.778L439.853 416.306L439.707 416.834L439.883 417.361L439.502 417.889L439.677 418.417L439.824 418.945L439.883 419.472L439.677 420Z" fill="#FFCC33"/>
<path d="M1396.63 309L1396.87 309.598L1397 310.197L1396.93 310.795L1396.57 311.393L1396.97 311.992L1396.77 312.59L1396.47 313.188L1396.83 313.787L1396.67 314.385L1396.7 314.983L1396.57 315.582V316.18L1396.2 316.745L1396.34 317.376L1396.24 317.942L1396.47 318.573L1396.27 319.138L1396.1 319.737L1396.3 320.368L1396.2 320.933L1396.6 321.565L1395.97 322.13L1396.14 322.728L1396 323.326L1395.8 323.891L1396.04 324.523L1396.2 325.155L1395.8 325.72L1396 326.318L1396.1 326.95L1395.87 327.515L1395.64 328.08L1395.47 328.678L1395.44 329.276L1395.34 329.875L1395.5 330.473L1395.11 331.038L1395.47 331.703L1395.3 332.268L1395.07 332.833L1395.14 333.465L1395.27 334.063L1394.61 334.595L1394.64 335.193L1394.37 335.758L1394.41 336.357L1394.71 337.021L1394.57 337.62V338.218L1394.51 338.816L1394.21 339.348L1394.24 339.98L1394.11 340.578L1394.14 341.176L1393.61 341.675L1393.31 342.24L1393.71 342.938L1393.58 343.503L1393.11 344.035L1392.94 344.6L1392.98 345.198L1393.14 345.863L1392.45 346.328L1392.55 346.96L1392.58 347.558L1392.65 348.19L1392.48 348.788L1392.41 349.387L1391.78 349.852L1391.58 350.417L1391.68 351.049L1391.65 351.647L1391.58 352.245L1391.15 352.777L1390.88 353.309L1390.82 353.907L1390.75 354.506L1390.58 355.104L1390.75 355.769L1390.65 356.367L1390.22 356.866V357.464L1390.05 358.062L1389.72 358.561L1389.35 359.093L1389.19 359.658L1388.89 360.19L1389.12 360.888V361.519L1388.39 361.918L1388.36 362.516V363.148L1388.39 363.813L1388.03 364.311L1387.73 364.843L1387.56 365.408L1387.33 365.973L1386.9 366.472L1387.13 367.17L1386.7 367.669L1386.9 368.333L1386.4 368.799L1386.46 369.464L1385.86 369.896L1385.93 370.56L1385.57 371.059L1385.27 371.591L1385.37 372.256L1384.8 372.688L1384.7 373.286L1384.3 373.785L1384.04 374.317L1384.24 375.048L1383.54 375.38L1383.6 376.078L1383.27 376.577L1382.84 377.042L1383.14 377.807L1382.54 378.206L1382.27 378.737L1382.14 379.336L1381.98 379.901L1381.58 380.399L1381.21 380.898L1381.34 381.596L1380.95 382.095L1380.88 382.693L1380.55 383.192V383.856L1379.75 384.156L1379.85 384.887L1379.65 385.452L1379.48 386.017L1379.15 386.516L1378.55 386.881L1378.68 387.613L1378.49 388.178L1378.22 388.743L1377.95 389.275L1377.16 389.54L1377.19 390.238L1376.66 390.637L1376.69 391.302L1376.39 391.834L1375.83 392.2V392.898L1375.56 393.43L1374.93 393.762L1375 394.46L1374.7 394.992L1374.4 395.524L1373.93 395.923L1373.77 396.521L1373.57 397.086L1372.87 397.385L1372.77 398.017V398.715L1372.27 399.114L1371.94 399.612L1371.57 400.078L1371.14 400.543L1371.11 401.208L1370.94 401.806L1370.54 402.271L1370.04 402.67L1369.98 403.335L1369.48 403.701L1368.81 404L1368.95 404.798L1368.65 405.329L1368.28 405.795L1367.68 406.127L1367.22 406.526V407.257L1366.62 407.557L1366.35 408.088L1366.32 408.82L1365.69 409.086L1365.72 409.85L1365.16 410.182L1364.76 410.615L1364.69 411.313L1363.83 411.446L1363.49 411.944L1363.26 412.509L1362.93 413.008L1362.73 413.606L1362.13 413.905L1362.2 414.67L1361.77 415.102L1361.03 415.301L1361.07 416.066L1360.34 416.299L1360.14 416.864L1359.77 417.362L1359.34 417.761L1359.31 418.492L1358.57 418.692L1358.31 419.224L1357.78 419.556L1357.44 420.055L1357.41 420.819L1356.61 420.952L1356.45 421.551L1355.92 421.916V422.681L1355.38 423.013L1354.79 423.312L1354.75 424.077L1354.05 424.243L1353.72 424.742L1353.32 425.174L1352.96 425.639L1352.79 426.304L1352.09 426.503L1351.99 427.201L1351.33 427.401L1350.93 427.866L1350.7 428.464L1350.36 428.963L1349.73 429.196L1349.4 429.694L1348.8 429.96L1348.5 430.492L1348.14 430.957L1347.67 431.356L1347.31 431.822L1347.04 432.387L1346.28 432.52L1345.88 432.952V433.783L1345.35 434.082L1344.65 434.248L1344.38 434.846L1344.15 435.445L1343.52 435.644L1342.99 435.943L1342.52 436.342L1342.49 437.173L1342.09 437.605L1341.59 437.971L1341.02 438.237L1340.59 438.636L1340.36 439.267L1339.63 439.334L1339.43 440.032H1338.63L1338.27 440.531L1338.13 441.262L1337.47 441.395L1337.27 442.093L1336.67 442.326L1336.37 442.891L1335.81 443.156L1335.31 443.456L1334.77 443.788L1334.21 444.021L1333.78 444.453L1333.54 445.118L1332.98 445.35L1332.58 445.816L1332.22 446.314L1331.55 446.447L1331.15 446.913L1330.85 447.511L1330.25 447.71L1329.59 447.843L1329.46 448.641L1328.59 448.475L1328.46 449.306L1327.66 449.239L1327.4 449.871L1326.93 450.237L1326.5 450.669L1326 451.001L1325.6 451.5L1325.17 451.899L1324.57 452.065L1324.01 452.298L1323.67 452.863L1323.11 453.095L1322.41 453.195L1322.18 453.893H1321.45L1321.01 454.325L1320.65 454.824L1320.18 455.223L1319.78 455.655L1318.95 455.522L1318.69 456.22L1318.32 456.718L1317.56 456.652L1317.06 457.018L1316.66 457.416L1316.16 457.749L1315.63 458.081L1315.13 458.38L1314.56 458.613L1314.1 459.012L1313.47 459.145L1313.24 459.876L1312.7 460.175L1312.01 460.142L1311.61 460.607L1310.97 460.74L1310.78 461.605L1310.04 461.505L1309.55 461.837L1309.11 462.269L1308.68 462.735L1307.88 462.602L1307.65 463.333L1306.85 463.2L1306.45 463.666L1305.96 464.031L1305.39 464.197L1304.89 464.563L1304.26 464.63L1303.76 464.962L1303.36 465.461L1302.83 465.76L1302.3 466.026L1301.87 466.491L1301.1 466.292L1300.6 466.624L1300.17 467.156L1299.57 467.255L1299.24 467.954L1298.48 467.787L1298.08 468.253L1297.51 468.519H1296.85L1296.52 469.183H1295.85L1295.25 469.283L1294.75 469.616L1294.35 470.214L1293.69 470.181L1293.26 470.712L1292.73 470.978L1292.09 471.012L1291.56 471.278H1290.9L1290.5 471.809L1289.93 472.042L1289.24 471.909L1288.84 472.541L1288.24 472.674L1287.71 472.906L1287.21 473.239L1286.58 473.272L1285.95 473.338L1285.58 474.07L1284.98 474.203L1284.52 474.568L1283.78 474.369L1283.25 474.668L1282.62 474.701L1282.16 475.1L1281.59 475.3L1281.13 475.798L1280.56 475.964L1280.03 476.263L1279.46 476.496H1278.83L1278.3 476.795L1277.6 476.529L1277.07 476.895L1276.51 477.095L1275.94 477.294L1275.47 477.726L1274.78 477.593L1274.28 477.959L1273.75 478.191L1273.11 478.258L1272.55 478.424L1271.98 478.557L1271.39 478.723L1270.92 479.189H1270.29L1269.62 479.122L1269.16 479.654L1268.49 479.455L1267.96 479.754L1267.36 479.787L1266.87 480.252L1266.23 480.186L1265.77 480.817L1265.2 480.95L1264.54 480.817L1263.94 480.851L1263.38 481.083L1262.81 481.316L1262.21 481.349L1261.71 481.781L1261.12 481.914L1260.48 481.815L1259.82 481.682L1259.29 481.948L1258.72 482.114L1258.19 482.546L1257.53 482.38L1256.99 482.646L1256.46 483.011L1255.83 482.911L1255.23 482.945L1254.57 482.812L1254 482.978L1253.54 483.709L1252.87 483.377H1252.27L1251.67 483.543L1251.08 483.477L1250.58 484.141L1249.98 484.208L1249.38 484.241L1248.72 483.909L1248.15 484.141L1247.59 484.308L1246.95 484.274L1246.39 484.441L1245.86 484.906L1245.23 484.806L1244.59 484.573L1244.03 484.806L1243.5 485.338L1242.87 485.072L1242.23 485.006L1241.64 485.072L1241.07 485.238L1240.51 485.504L1239.87 485.238L1239.28 485.272L1238.68 485.305L1238.15 485.936L1237.51 485.77L1236.88 485.471L1236.32 485.737L1235.75 486.202L1235.15 486.335L1234.52 485.97L1233.96 486.302L1233.36 486.335H1232.76L1232.16 486.202L1231.6 486.601L1230.97 486.202L1230.37 486.535L1229.77 486.302L1229.17 486.335L1228.57 486.269L1227.97 486.668L1227.41 486.767L1226.78 486.568H1226.18L1225.58 486.801L1225.02 486.934L1224.38 486.468H1223.79L1223.19 486.568L1222.59 486.734L1221.99 486.335L1221.39 486.601L1220.79 486.535L1220.2 487L1219.6 486.435H1219L1218.4 486.501L1217.8 486.535L1217.21 486.9L1216.61 486.435L1216.01 486.767L1215.41 486.934L1214.81 487L1214.21 486.867L1213.62 486.668L1213.02 486.701L1212.45 486.236L1211.85 486.269L1211.22 486.734L1210.66 486.368L1210.06 486.402L1209.46 486.501H1208.83L1208.23 486.701L1207.67 486.269L1207.03 486.601L1206.47 486.169L1205.84 486.535L1205.27 485.97L1204.67 486.069L1204.08 486.036L1203.51 485.803L1202.88 486.069L1202.28 486.136L1201.68 485.837L1201.05 486.169L1200.49 485.936L1199.92 485.471L1199.32 485.704L1198.72 485.471L1198.13 485.537L1197.53 485.604L1196.96 485.105L1196.33 485.438L1195.73 485.471L1195.2 484.906L1194.57 484.939L1194 484.873L1193.44 484.54H1192.84L1192.24 484.474L1191.64 484.407L1191.05 484.374L1190.45 484.341L1189.85 484.274L1189.25 484.241L1188.72 483.809L1188.09 483.875L1187.52 483.643L1186.86 484.075L1186.26 484.008L1185.73 483.61L1185.13 483.543L1184.6 483.177L1183.9 483.477L1183.43 482.845L1182.87 482.679L1182.2 482.812L1181.57 482.978L1181.04 482.579L1180.44 482.513L1179.91 482.18L1179.28 482.247L1178.61 482.413L1178.18 481.615L1177.48 482.08L1177.02 481.482L1176.42 481.382L1175.75 481.582L1175.22 481.216L1174.66 481.017L1173.99 481.216L1173.56 480.485L1172.83 480.917L1172.26 480.718L1171.77 480.286L1171.07 480.485L1170.64 479.853H1170L1169.47 479.554L1168.81 479.687L1168.28 479.421L1167.71 479.222L1167.08 479.189L1166.51 478.989L1165.95 478.889L1165.42 478.491L1164.89 478.291L1164.25 478.191L1163.76 477.859L1163.09 477.959L1162.53 477.693L1162.03 477.327L1161.46 477.161L1160.86 477.061L1160.23 477.028L1159.87 476.263L1159.27 476.197L1158.7 475.964L1158.2 475.665L1157.61 475.532L1157.01 475.399L1156.44 475.266L1155.84 475.1L1155.28 474.967L1154.81 474.469L1154.22 474.302L1153.52 474.502L1153.02 474.136L1152.42 474.036L1151.89 473.771L1151.39 473.405L1150.92 472.94L1150.33 472.807L1149.69 472.773L1149.1 472.674L1148.53 472.441L1147.97 472.208L1147.5 471.843L1147.07 471.344L1146.54 471.078L1145.84 471.145L1145.24 471.012L1144.78 470.579L1144.14 470.546L1143.71 470.014L1143.31 469.483L1142.61 469.549L1142.12 469.25L1141.68 468.718L1140.92 468.917L1140.35 468.718L1139.86 468.419L1139.56 467.688L1138.86 467.721L1138.43 467.222L1137.83 467.123L1137.33 466.757L1136.73 466.624L1136.3 466.192L1135.57 466.292L1135.2 465.66L1134.77 465.195L1134.04 465.328L1133.77 464.596L1133.07 464.563L1132.58 464.264L1131.88 464.297L1131.45 463.832L1130.85 463.699L1130.52 463.067L1129.85 463.001L1129.48 462.402L1129.05 462.004L1128.25 462.17L1128.09 461.306L1127.42 461.206L1126.83 461.04L1126.49 460.475L1125.89 460.308L1125.5 459.81L1124.96 459.511L1124.23 459.544L1123.67 459.311L1123.44 458.58L1123 458.148L1122.17 458.347L1121.81 457.815L1121.44 457.25L1121.01 456.851H1120.28L1119.94 456.286L1119.41 456.02L1118.98 455.588L1118.15 455.754L1117.78 455.223L1117.52 454.591L1116.75 454.624L1116.59 453.793L1115.72 453.96L1115.62 453.128L1114.89 453.062L1114.63 452.464L1113.99 452.298L1113.36 452.165L1112.8 451.865L1112.57 451.201L1112.07 450.901L1111.73 450.336H1110.97L1110.67 449.771L1110.11 449.505L1109.91 448.807L1109.34 448.575L1108.84 448.209L1108.24 448.01L1107.88 447.511L1107.21 447.378L1107.08 446.58L1106.25 446.647L1105.72 446.348L1105.25 445.982L1105.02 445.317L1104.69 444.785H1103.92L1103.86 443.921L1103.03 443.988L1102.96 443.156H1102.16L1101.93 442.525L1101.23 442.425L1100.73 442.06L1100.53 441.395L1099.9 441.195L1099.77 440.431L1099.14 440.265L1098.54 439.999L1098.27 439.434L1097.91 438.935L1097.64 438.37L1097.08 438.104L1096.44 437.871L1096.18 437.273L1095.78 436.841L1095.21 436.575L1094.85 436.11L1094.55 435.545L1093.79 435.478L1093.65 434.78L1093.39 434.182L1092.89 433.816L1092.36 433.517L1091.66 433.384L1091.56 432.653L1091.16 432.187L1090.53 431.955L1090.46 431.19L1089.73 431.057L1089.36 430.592L1088.9 430.226L1088.47 429.794L1088.27 429.162L1087.87 428.73L1087.14 428.564L1087 427.899L1086.41 427.633L1086.31 426.935L1085.71 426.636L1085.51 426.038L1084.91 425.772L1084.44 425.373L1084.31 424.708L1083.95 424.21L1083.68 423.645L1082.85 423.578L1082.42 423.146L1082.12 422.614L1081.98 421.949L1081.62 421.484L1081.12 421.118L1080.92 420.52L1080.59 420.022L1080.09 419.656L1079.53 419.323L1079.29 418.758L1078.93 418.293L1078.49 417.861L1078.2 417.362L1077.73 416.963L1077.46 416.398L1076.87 416.099L1076.8 415.401L1076.1 415.202L1076.03 414.47L1075.8 413.905L1075.5 413.407L1074.94 413.074L1074.74 412.476L1074.44 411.944L1074.17 411.412L1073.84 410.914L1073.31 410.581L1073.18 409.917L1072.61 409.584L1072.01 409.252L1072.11 408.487L1071.31 408.321L1071.02 407.789L1070.62 407.324L1070.52 406.692L1070.08 406.227L1069.85 405.695L1069.39 405.263V404.565L1069.15 404L1068.76 403.535L1068.42 403.069L1068.26 402.438L1067.53 402.205L1067.09 401.773L1066.83 401.241L1066.59 400.676L1066.23 400.177L1065.83 399.745L1066.03 398.914L1065.53 398.515L1065.33 397.917L1064.83 397.551L1064.3 397.152L1064.17 396.554L1063.8 396.055L1063.87 395.357L1063.34 394.959L1062.84 394.526L1063.07 393.729L1062.34 393.463L1061.97 392.964L1061.74 392.432V391.734L1061.58 391.136L1061.04 390.737L1061.18 390.006L1060.74 389.574L1060.25 389.142L1059.85 388.676L1059.95 387.945L1059.32 387.613L1059.28 386.948L1058.95 386.449L1058.48 386.017V385.352L1057.95 384.92L1058.05 384.222L1057.85 383.657L1057.45 383.192L1057.35 382.56L1056.66 382.228L1056.72 381.563L1056.49 380.998L1056.19 380.466L1056.29 379.801L1055.79 379.369L1055.69 378.737L1055.06 378.372L1055.39 377.574L1054.53 377.275L1054.93 376.477L1054.1 376.178V375.513L1053.93 374.948L1053.46 374.483L1053.37 373.884L1053.46 373.186L1053.27 372.655L1052.73 372.189L1052.33 371.724L1052.63 370.959L1052.53 370.361L1052.17 369.862V369.231L1051.94 368.666L1051.44 368.234L1051.07 367.702L1050.71 367.203L1051.01 366.472L1050.81 365.907L1050.47 365.408L1050.34 364.81L1049.74 364.378L1050.17 363.613L1050.04 363.015L1049.78 362.483L1049.01 362.084V361.486L1048.78 360.921L1048.91 360.256L1048.68 359.691L1048.58 359.093L1048.65 358.461L1048.21 357.962L1047.98 357.397L1047.78 356.832L1047.58 356.267L1047.48 355.702L1047.68 355.004L1047.15 354.539L1047.35 353.874L1047.05 353.342L1046.85 352.777L1046.29 352.278L1046.65 351.58L1046.42 351.015L1046.15 350.483L1046.29 349.819L1045.92 349.32L1046.09 348.655L1045.99 348.057L1045.22 347.625L1045.72 346.894L1045.55 346.328L1044.92 345.863L1044.79 345.265L1045.09 344.6L1044.66 344.068L1044.49 343.503L1044.62 342.872L1044.19 342.34L1044.42 341.675L1044.12 341.143L1044.32 340.478L1044.19 339.913L1043.96 339.348V338.717L1043.73 338.151L1043.86 337.553L1043.66 336.955L1043.73 336.357L1043.03 335.858L1043.36 335.193L1042.96 334.661L1042.79 334.063L1043.09 333.431L1042.79 332.866L1043.13 332.202L1042.66 331.67L1042.53 331.071L1042.43 330.506L1042.46 329.908L1042.56 329.276L1042.2 328.711L1042.06 328.146L1042.33 327.515L1042.16 326.916L1041.96 326.351L1042.2 325.72L1042.23 325.121L1042.1 324.523L1041.6 323.958V323.36L1041.9 322.728L1041.66 322.163L1041.47 321.565L1041.76 320.966L1041.53 320.368L1041.66 319.77L1041.63 319.171L1041.76 318.573L1041.6 317.975L1041.4 317.376L1041.53 316.778L1041.1 316.18L1041.63 315.582L1041.66 314.983L1041.57 314.385L1041.2 313.787L1041.13 313.188L1041 312.59L1041.53 311.992L1041.6 311.393L1041.2 310.795L1041.17 310.197L1041 309.598L1041.07 309L1041.43 308.402L1041.1 307.803L1041.57 307.205L1041.5 306.607L1041.43 306.008L1041.3 305.41L1041.66 304.812L1041.2 304.213L1041.6 303.615L1041.7 303.017L1041.6 302.419L1041.17 301.82L1041.4 301.222L1041.43 300.624V300.025L1041.4 299.427L1041.66 298.862L1041.63 298.23L1041.66 297.632L1041.9 297.067L1041.43 296.435L1041.76 295.87L1041.8 295.272L1041.7 294.64L1042.13 294.075L1041.7 293.444L1042.33 292.912L1041.93 292.28L1041.9 291.649L1042.1 291.084L1042.4 290.519L1042.06 289.887V289.289L1042.43 288.724L1042.53 288.125L1042.6 287.527L1042.93 286.962L1042.89 286.364L1042.53 285.699L1043.09 285.167L1043.06 284.569L1042.83 283.937L1043.33 283.405L1042.99 282.74L1043.66 282.242L1043.73 281.644L1043.29 280.979L1043.43 280.38L1043.46 279.782L1043.56 279.217L1043.69 278.619L1043.73 278.02L1043.89 277.422L1044.39 276.923L1044.06 276.259L1044.66 275.76L1044.86 275.195L1044.32 274.464L1044.49 273.899L1044.86 273.367L1045.19 272.802L1045.22 272.203L1045.19 271.605L1045.69 271.073L1045.65 270.475L1045.95 269.943L1045.65 269.245L1046.15 268.746L1046.32 268.181L1046.38 267.583L1046.32 266.951L1046.55 266.386L1046.48 265.755L1046.95 265.256L1047.18 264.691L1046.82 263.993L1047.38 263.528L1047.65 262.963L1047.48 262.298L1047.75 261.766L1047.98 261.201L1048.25 260.636L1048.28 260.038L1048.35 259.439L1048.71 258.941L1048.74 258.309L1048.78 257.677L1048.98 257.146L1048.88 256.481L1049.51 256.049L1049.48 255.417L1050.04 254.952L1049.94 254.32L1050.27 253.788L1050.44 253.19L1050.31 252.525L1050.67 252.027L1051.1 251.528L1050.84 250.83L1051.5 250.431L1051.44 249.766L1051.4 249.102L1051.74 248.603L1052.1 248.104L1052.07 247.44L1052.14 246.841L1052.77 246.409L1053 245.877L1053.33 245.379L1053.03 244.614L1053.73 244.249L1054 243.717L1054.03 243.085L1054.23 242.52L1054.53 241.988L1054.93 241.49L1054.6 240.725L1055.39 240.393L1055.03 239.595L1055.43 239.13L1055.69 238.598L1056.22 238.166L1056.36 237.567L1056.56 237.002L1056.69 236.404L1057.19 235.972V235.307L1057.65 234.875L1057.69 234.243L1057.75 233.612L1058.45 233.279L1058.32 232.548L1058.52 231.983L1058.92 231.484L1059.05 230.919L1059.48 230.454L1059.85 229.955L1060.25 229.49L1060.11 228.759L1060.78 228.426L1061.11 227.928V227.263L1061.21 226.631L1061.84 226.299V225.601L1062.57 225.335L1062.71 224.703L1062.81 224.105L1063.17 223.607L1063.64 223.174L1063.5 222.41L1064 222.011L1064.04 221.346L1064.53 220.947L1064.8 220.416L1065.17 219.917L1065.53 219.452L1065.8 218.92L1066.03 218.355L1066.56 217.989L1066.5 217.258L1066.76 216.693L1067.26 216.294L1067.72 215.895L1067.96 215.33L1068.46 214.931L1068.56 214.299L1068.92 213.834L1069.22 213.302L1069.55 212.804L1069.69 212.172L1070.28 211.84L1070.68 211.374L1071.05 210.942L1071.12 210.277L1071.41 209.745L1072.08 209.48V208.715L1072.81 208.516L1072.94 207.884L1073.04 207.219L1073.51 206.82L1074.14 206.521L1074.51 206.056V205.325L1074.84 204.826L1075.44 204.527V203.762L1076.23 203.629L1076.63 203.164L1076.93 202.632L1077.13 202.067L1077.5 201.568L1077.93 201.17L1078.46 200.837V200.073L1079.13 199.84L1079.19 199.109L1079.39 198.51L1079.89 198.145L1080.19 197.613L1080.56 197.148L1081.12 196.815L1081.25 196.184L1082.18 196.15L1082.25 195.452L1082.88 195.186L1083.28 194.721L1083.61 194.256L1083.71 193.524L1084.08 193.092L1084.51 192.66L1085.04 192.328L1085.61 192.029L1085.91 191.497L1086.11 190.865L1086.47 190.4L1087.1 190.167L1087.54 189.735L1087.7 189.07L1088.2 188.705L1088.5 188.206L1088.8 187.674L1089.3 187.275L1089.8 186.943L1090.36 186.644L1090.63 186.079L1091.26 185.879V185.015L1091.99 184.915L1092.12 184.184L1092.89 184.151L1093.29 183.685L1093.52 183.087L1093.85 182.555L1094.65 182.489L1094.95 181.957L1095.25 181.392L1095.58 180.893L1096.15 180.594L1096.51 180.129L1096.94 179.73L1097.34 179.264L1098.01 179.131L1098.41 178.633L1098.84 178.234L1099.17 177.702L1099.6 177.303L1099.9 176.771L1100.63 176.672L1100.8 175.974L1101.33 175.675L1101.73 175.209L1102.46 175.143L1102.96 174.81L1103.36 174.345L1103.69 173.813L1104.02 173.281L1104.46 172.882L1104.92 172.517L1105.39 172.085L1106.08 172.018L1106.62 171.719L1106.78 170.988L1107.31 170.722L1107.85 170.389L1108.34 170.057L1108.84 169.758L1109.14 169.126L1109.51 168.628L1109.94 168.262L1110.84 168.428L1111.2 167.93L1111.63 167.497L1112.03 166.999L1112.57 166.766L1113.16 166.567L1113.33 165.736L1114.09 165.802L1114.46 165.304L1115.13 165.204L1115.56 164.739L1115.82 164.107L1116.45 163.974L1116.75 163.342H1117.49L1117.68 162.578L1118.55 162.777L1118.88 162.212L1119.25 161.68L1119.85 161.514L1120.38 161.215L1120.64 160.55L1121.34 160.484H1122.04L1122.34 159.852L1122.74 159.354L1123.3 159.154L1123.77 158.755L1124.2 158.323H1124.9L1125.46 158.091L1125.8 157.492L1126.23 157.027L1126.76 156.761H1127.46L1127.96 156.462L1128.49 156.163L1128.82 155.531L1129.52 155.598L1130.15 155.498L1130.32 154.567L1131.11 154.733L1131.38 154.002L1131.94 153.803L1132.44 153.47L1132.94 153.105L1133.64 153.171L1134.14 152.839L1134.64 152.473L1135.07 152.041L1135.87 152.207L1136.17 151.509L1136.76 151.409L1137.36 151.243L1137.99 151.143L1138.53 150.911L1138.79 150.08L1139.32 149.847L1139.92 149.681L1140.62 149.714L1140.92 149.016L1141.48 148.783L1142.25 149.016L1142.55 148.218L1143.15 148.085H1143.78L1144.31 147.753L1144.91 147.653L1145.27 147.022L1146.01 147.188L1146.37 146.49L1146.97 146.423L1147.43 145.925L1148.17 146.124L1148.56 145.559L1149.3 145.759L1149.63 144.994L1150.43 145.36L1150.92 145.027L1151.42 144.695L1151.96 144.396L1152.65 144.462L1153.02 143.797L1153.75 144.03L1154.28 143.731L1154.78 143.399L1155.25 142.933L1155.98 143.133L1156.48 142.833L1156.91 142.302L1157.51 142.135L1158.04 141.869L1158.57 141.537L1159.27 141.737L1159.7 141.171L1160.43 141.471L1160.8 140.673L1161.46 140.806L1161.96 140.407L1162.56 140.307L1163.26 140.473L1163.79 140.274L1164.22 139.576L1164.89 139.709L1165.45 139.543L1166.05 139.41L1166.61 139.21L1167.21 139.144L1167.81 139.077L1168.31 138.645L1168.97 138.811L1169.51 138.545L1170.07 138.313L1170.64 138.08L1171.1 137.482L1171.7 137.415L1172.23 137.183L1172.86 137.149L1173.56 137.415L1174.16 137.349L1174.69 137.149L1175.22 136.817L1175.72 136.352L1176.42 136.584L1177.02 136.551L1177.55 136.219L1178.05 135.72L1178.68 135.753L1179.31 135.82H1179.91L1180.51 135.753L1181.04 135.354L1181.64 135.255L1182.17 135.022L1182.77 134.889L1183.33 134.623L1183.93 134.656L1184.56 134.69L1185.1 134.258L1185.66 134.158L1186.33 134.39L1186.92 134.357H1187.52L1188.12 134.258L1188.62 133.692L1189.28 134.025L1189.82 133.526L1190.48 133.859L1191.05 133.593L1191.64 133.626L1192.24 133.559L1192.81 133.194L1193.41 133.26L1193.94 132.728L1194.6 133.227L1195.17 132.994L1195.73 132.762L1196.36 132.795L1196.93 132.596L1197.49 132.296L1198.16 132.861L1198.72 132.463L1199.32 132.529L1199.89 132.13L1200.52 132.296L1201.08 132.064L1201.72 132.33L1202.28 131.897L1202.88 131.798L1203.48 131.964L1204.08 131.765L1204.64 131.565L1205.27 131.798L1205.84 131.565H1206.44L1207.07 131.864L1207.67 131.964H1208.26L1208.86 131.831H1209.46L1210.06 131.565L1210.62 131.499L1211.26 131.698L1211.82 131.133L1212.42 131.233L1213.02 131.399L1213.62 131.233L1214.21 131.366L1214.81 131.133L1215.41 131H1216.01L1216.61 131.166L1217.21 131.133L1217.8 131.499L1218.4 131.033L1219 131.1L1219.6 131.332L1220.2 131.598L1220.79 131.299L1221.39 131.033L1221.99 131.332L1222.59 131.199L1223.19 131.1L1223.79 131.133L1224.38 131.698L1224.98 131.665L1225.58 131.765L1226.18 131.399L1226.78 131.632H1227.38L1228.01 131.199L1228.57 131.698L1229.17 131.332L1229.77 131.831L1230.37 131.499L1230.97 131.765H1231.56L1232.13 132.097L1232.73 132.064L1233.36 131.731L1233.96 131.565L1234.52 132.03L1235.12 132.33L1235.75 131.831H1236.35L1236.92 132.263L1237.51 132.163L1238.08 132.496L1238.71 132.33L1239.28 132.728L1239.91 132.463L1240.51 132.296L1241.07 132.828L1241.64 132.994L1242.27 132.762L1242.8 133.194L1243.5 132.695L1244.06 132.861L1244.69 132.795L1245.23 133.161H1245.82L1246.42 133.327L1246.95 133.726L1247.59 133.659L1248.25 133.36L1248.75 133.825L1249.31 134.125L1250.01 133.659L1250.58 133.958H1251.18L1251.71 134.291L1252.24 134.69L1252.84 134.823L1253.47 134.656L1254.13 134.424L1254.7 134.656L1255.3 134.723L1255.76 135.421L1256.46 135.022H1257.06L1257.56 135.554H1258.16L1258.69 135.953L1259.25 136.152L1259.98 135.72L1260.55 135.853L1261.08 136.219L1261.65 136.451L1262.28 136.385L1262.88 136.518L1263.38 136.883L1264.01 136.85L1264.61 136.983L1265.1 137.449L1265.64 137.714L1266.27 137.648L1266.93 137.582L1267.46 137.847L1268.06 137.947L1268.53 138.446L1269.23 138.28L1269.82 138.313L1270.26 139.011L1270.82 139.144L1271.49 139.077L1272.02 139.31L1272.58 139.509L1273.25 139.41L1273.68 140.075L1274.24 140.207L1274.78 140.54L1275.37 140.64L1275.97 140.739L1276.64 140.606L1277.04 141.304L1277.74 141.105L1278.27 141.404L1278.8 141.67L1279.3 142.102L1279.9 142.202L1280.43 142.435L1281.16 142.235L1281.59 142.7L1282.12 143L1282.65 143.266L1283.22 143.465L1283.98 143.199L1284.52 143.432L1284.85 144.23L1285.41 144.429L1286.14 144.196L1286.74 144.329L1287.14 144.961L1287.81 144.928L1288.17 145.592L1288.97 145.26L1289.47 145.559L1289.93 146.058L1290.47 146.29L1290.96 146.623L1291.6 146.689L1292.03 147.221H1292.66L1293.19 147.52L1293.72 147.786L1294.35 147.853L1294.95 147.986L1295.35 148.551L1295.78 149.049L1296.48 148.916L1297.01 149.249L1297.61 149.382L1297.94 150.047L1298.74 149.814L1299.14 150.346L1299.57 150.811L1300.24 150.778L1300.8 151.01L1301.3 151.376L1301.73 151.841L1302.47 151.675L1302.76 152.407L1303.26 152.739L1303.8 153.038L1304.56 152.872L1304.86 153.603L1305.39 153.836L1305.89 154.201L1306.52 154.268L1307.05 154.534L1307.55 154.866L1308.18 154.999L1308.68 155.298L1309.18 155.664L1309.65 156.063L1310.08 156.495L1310.51 156.927L1311.21 156.894L1311.54 157.525L1312.04 157.858L1312.8 157.725L1313.34 158.024L1313.83 158.356L1314.3 158.755L1314.6 159.42L1315.33 159.387L1315.66 159.952L1316.06 160.417L1316.56 160.783L1317.26 160.816L1317.86 160.949L1318.19 161.548L1318.72 161.813L1319.15 162.246L1319.52 162.744L1320.02 163.11L1320.65 163.243L1321.28 163.409L1321.65 163.874L1322.04 164.373L1322.51 164.739L1323.27 164.705L1323.51 165.403L1323.87 165.902L1324.74 165.769L1324.9 166.567L1325.3 166.966L1325.77 167.365L1326.66 167.165L1326.96 167.73L1327.33 168.262L1327.76 168.694L1328.26 168.993L1328.86 169.259L1329.29 169.625L1329.59 170.223H1330.39L1330.75 170.689L1331.22 171.054L1331.72 171.387L1332.15 171.819L1332.51 172.317L1333.18 172.45L1333.54 172.949L1333.94 173.414L1334.21 173.979L1334.77 174.278L1335.34 174.544L1335.94 174.777L1336.27 175.276L1336.8 175.575L1337.3 175.907L1337.4 176.705L1338.13 176.771L1338.33 177.469L1338.86 177.769L1339.1 178.4L1339.83 178.467L1340.09 179.098L1340.72 179.264L1341.19 179.663L1341.72 179.962L1342.05 180.494L1342.55 180.827L1342.52 181.691L1343.35 181.724L1343.45 182.489L1343.92 182.854L1344.21 183.386L1344.71 183.752L1345.41 183.885L1345.64 184.516L1346.14 184.849L1346.77 185.081L1346.74 185.946L1347.31 186.212L1347.61 186.743L1348.4 186.843L1348.77 187.308L1348.94 187.94L1349.43 188.306L1349.77 188.804L1350.4 189.07L1350.43 189.835L1350.93 190.2L1351.43 190.566L1352.13 190.732L1352.23 191.43L1352.72 191.796L1353.06 192.294L1353.16 192.993L1353.62 193.358L1354.09 193.757L1354.75 193.99L1355.12 194.455L1355.32 195.087L1355.88 195.386L1355.92 196.15L1356.75 196.217L1356.91 196.882L1357.21 197.413L1357.68 197.779L1358.28 198.078L1358.64 198.544L1358.51 199.408L1359.27 199.574L1359.34 200.272L1359.64 200.804L1360.07 201.203L1360.37 201.735L1360.7 202.233L1361.4 202.466L1361.63 203.031L1361.77 203.696L1362.1 204.161L1362.86 204.361L1363.23 204.826L1363.2 205.59L1363.83 205.89L1364.26 206.289L1364.23 207.053L1364.99 207.252V207.984L1365.26 208.516L1365.92 208.782L1366.22 209.313L1366.49 209.845L1366.75 210.377L1367.05 210.909L1367.62 211.241L1367.78 211.84L1368.38 212.172L1368.35 212.903L1368.91 213.269L1369.21 213.801L1369.48 214.299L1369.98 214.698L1370.24 215.263L1370.54 215.762L1370.47 216.526L1371.04 216.892L1371.24 217.457L1371.84 217.79L1372.14 218.321L1372.1 219.019L1372.3 219.585L1373.13 219.817V220.515L1373.73 220.848L1374.03 221.346L1373.93 222.111L1374.16 222.643L1374.9 222.942L1375.16 223.474V224.172L1375.59 224.604L1375.99 225.069L1375.96 225.767L1376.59 226.1L1376.56 226.798L1377.02 227.23L1376.89 227.961L1377.52 228.327L1377.62 228.925L1378.05 229.39L1378.45 229.856L1378.78 230.354L1378.95 230.953L1379.12 231.518L1379.42 232.049V232.714L1379.88 233.146V233.811L1380.18 234.343L1380.65 234.775L1380.98 235.274L1381.14 235.872L1381.01 236.57L1381.38 237.069L1381.44 237.7L1382.11 238.066L1382.31 238.631L1382.41 239.229L1382.74 239.728L1382.67 240.393L1382.94 240.958L1383.47 241.39L1383.57 241.955L1383.87 242.487L1384.27 242.985L1384.07 243.717L1384.83 244.049L1384.63 244.78L1385.07 245.246L1385.47 245.744L1385.3 246.442L1385.37 247.041L1386.06 247.44L1386.33 247.971L1385.96 248.736L1386.3 249.235L1386.56 249.766L1386.5 250.431L1386.83 250.963L1387.06 251.495L1387.33 252.06L1387.89 252.492L1387.69 253.19L1387.79 253.788L1388.03 254.32L1388.62 254.786L1388.42 255.45L1388.49 256.049L1388.56 256.68L1389.26 257.079L1389.45 257.644L1389.35 258.309L1389.72 258.808L1390.02 259.373L1389.55 260.104L1390.25 260.536L1390.49 261.101L1390.05 261.833L1390.29 262.398L1390.62 262.896L1391.12 263.395L1390.68 264.126L1391.22 264.625L1390.98 265.289L1391.18 265.855L1391.71 266.32L1391.88 266.918L1392.11 267.45L1392.18 268.082L1392.05 268.713L1392.41 269.245L1392.25 269.877L1392.48 270.442L1392.35 271.106L1392.51 271.672L1392.61 272.27L1392.94 272.802L1393.18 273.367L1393.51 273.899L1393.64 274.497L1393.18 275.195L1393.61 275.694L1393.68 276.292L1393.58 276.923L1393.68 277.522L1393.84 278.087L1394.07 278.652L1394.41 279.217L1394.31 279.849V280.447L1394.81 280.979L1394.61 281.61V282.209L1394.64 282.807L1395.21 283.339L1394.84 283.97L1395.14 284.535L1394.77 285.2L1395.34 285.732L1395.27 286.33L1395.4 286.929L1395.3 287.527L1395.37 288.125L1395.54 288.724L1395.94 289.289L1395.5 289.92L1395.6 290.519L1395.64 291.117L1396.07 291.682L1396.24 292.247L1395.7 292.912L1395.94 293.477L1396.27 294.042L1396.04 294.674L1395.94 295.272L1396.17 295.87L1396.43 296.435L1396.34 297.034L1396.7 297.632L1396.57 298.23L1396.43 298.829L1396.67 299.427L1396.14 300.058L1396.3 300.624L1396.5 301.222L1396.3 301.82L1396.73 302.419L1396.63 303.017L1396.73 303.615L1396.8 304.213L1396.83 304.812L1396.67 305.41L1396.87 306.008L1396.43 306.607L1396.63 307.205L1396.8 307.803L1396.87 308.402L1396.63 309Z" fill="#64B4FA"/>
</g>
</svg>
